<?xml version="1.0" encoding="UTF-8"?>
<svg width="217px" height="298px" viewBox="0 0 217 298" version="1.1" xmlns="http://www.w3.org/2000/svg" xmlns:xlink="http://www.w3.org/1999/xlink">
    <!-- Generator: Sketch 46 (44423) - http://www.bohemiancoding.com/sketch -->
    <title>09</title>
    <desc>Created with Sketch.</desc>
    <defs></defs>
    <g id="Page-1" stroke="none" stroke-width="1" fill="none" fill-rule="evenodd" stroke-linecap="round" stroke-linejoin="round">
        <g id="09" transform="translate(-120.000000, -76.000000)" stroke="#000000" stroke-width="0.3">
            <path d="M142.1,91.7 C142.1,91.7 156.6,85.3 170.5,82 C184.4,78.7 191.1,78.2 197.1,77.6" id="Shape"></path>
            <path d="M246.8,372.2 C246.8,372.2 261,374.3 277.2,372.2 C293.5,370.1 305.5,365.5 311.7,362.8" id="Shape"></path>
            <path d="M121,296.3 C121,296.3 126.9,314.8 137.7,330.8 C137.7,330.8 145.8,342.9 154,351.4 C162.2,360 166.3,363 167.7,364.2" id="Shape"></path>
            <path d="M297.8,314.5 C297.8,314.5 310,308.6 320.3,295.4 C330.6,282.2 336.6,264.5 336.3,247.4 C336,230.3 332,216.7 329.3,208.9" id="Shape"></path>
            <path d="M197.1,77.5 C197.1,77.5 206.1,76.6 215,76.8 C223.9,77 235.1,77.9 245.1,79.9 C255.1,81.9 260.7,83.6 260.7,83.6" id="Shape"></path>
        </g>
    </g>
</svg>