<?xml version="1.0" encoding="UTF-8"?>
<svg width="163px" height="223px" viewBox="0 0 163 223" version="1.1" xmlns="http://www.w3.org/2000/svg" xmlns:xlink="http://www.w3.org/1999/xlink">
    <!-- Generator: Sketch 46 (44423) - http://www.bohemiancoding.com/sketch -->
    <title>01</title>
    <desc>Created with Sketch.</desc>
    <defs></defs>
    <g id="Page-1" stroke="none" stroke-width="1" fill="none" fill-rule="evenodd" stroke-linecap="round" stroke-linejoin="round">
        <g id="01" transform="translate(-140.000000, -101.000000)" stroke="#000000" stroke-width="0.3">
            <g id="opfinger_anim_01" transform="translate(140.000000, 126.000000)">
                <path d="M146.6,118.7 C147,122.5 147.8,134.4 138.3,142.3 C125.7,152.8 112.4,146.1 112.4,146.1" id="Shape"></path>
                <path d="M44.3,55.5 C44.3,55.5 11.3,67 0.9,104.5" id="Shape"></path>
                <path d="M59.4,163.3 C59.4,163.3 71.7,183.9 95.3,192.7 C118.9,201.5 140.2,197.7 157.8,188.5" id="Shape"></path>
                <path d="M105.9,4.9 C105.9,4.9 82.6,-3.2 50.4,2.3" id="Shape"></path>
                <path d="M23,125.1 C23,125.1 23,142.3 29.7,159.2 C29.7,159.2 35,172.6 41,180.3" id="Shape"></path>
            </g>
            <g id="opfinger_anim_02" transform="translate(181.000000, 102.000000)">
                <path d="M71.4,170.1 C71.4,170.1 57.1,165 56.2,148.1 C55.3,131.2 42.6,124.1 32,123.5" id="Shape"></path>
                <path d="M31.4,148.7 C31.4,148.7 30.4,168.9 49.2,185.2 C68,201.5 91.3,197.6 101.9,192.3 C112.5,187 118.8,180.3 121.4,176.1" id="Shape"></path>
                <path d="M110.1,87.9 C110.1,87.9 95.2,65.9 62.9,54.3 C30.6,42.7 0.2,54.3 0.2,54.3" id="Shape"></path>
                <path d="M43.8,0.1 C43.8,0.1 64.3,1.2 88.4,10.8" id="Shape"></path>
            </g>
        </g>
    </g>
</svg>