<?xml version="1.0" encoding="UTF-8"?>
<svg width="263px" height="372px" viewBox="0 0 263 372" version="1.1" xmlns="http://www.w3.org/2000/svg" xmlns:xlink="http://www.w3.org/1999/xlink">
    <!-- Generator: Sketch 46 (44423) - http://www.bohemiancoding.com/sketch -->
    <title>11</title>
    <desc>Created with Sketch.</desc>
    <defs></defs>
    <g id="Page-1" stroke="none" stroke-width="1" fill="none" fill-rule="evenodd" stroke-linecap="round" stroke-linejoin="round">
        <g id="11" transform="translate(-106.000000, -51.000000)" stroke="#000000" stroke-width="0.3">
            <g id="opfinger_anim_18" transform="translate(106.000000, 62.000000)">
                <path d="M0.7,264.5 C0.7,264.5 12,286.6 24.4,300.3" id="Shape"></path>
                <path d="M107.8,353.9 C107.8,353.9 137.4,363.2 170.1,360.1" id="Shape"></path>
                <path d="M227.5,0.9 C227.5,0.9 240.5,9.2 252.1,19.4" id="Shape"></path>
            </g>
            <g id="opfinger_anim_19" transform="translate(210.000000, 52.000000)">
                <path d="M151.1,195.3 C151.1,195.3 151.5,210.1 147.2,224.9" id="Shape"></path>
                <path d="M101.5,310.9 C101.5,310.9 136.7,297.2 158.7,260.4" id="Shape"></path>
                <path d="M0.2,0.1 C0.2,0.1 22.2,-0.4 43.7,4.4 C65.2,9.2 81,15.7 94,22.5" id="Shape"></path>
            </g>
        </g>
    </g>
</svg>