<?xml version="1.0" encoding="UTF-8"?>
<svg width="307px" height="258px" viewBox="0 0 307 258" version="1.1" xmlns="http://www.w3.org/2000/svg" xmlns:xlink="http://www.w3.org/1999/xlink">
    <!-- Generator: Sketch 46 (44423) - http://www.bohemiancoding.com/sketch -->
    <title>07</title>
    <desc>Created with Sketch.</desc>
    <defs></defs>
    <g id="Page-1" stroke="none" stroke-width="1" fill="none" fill-rule="evenodd" stroke-linecap="round" stroke-linejoin="round">
        <g id="07" transform="translate(-71.000000, -91.000000)" stroke="#000000" stroke-width="0.3">
            <g id="opfinger_anim_12" transform="translate(233.000000, 96.000000)">
                <path d="M59.2,0.1 C59.2,0.1 83.5,11.1 108.4,38.1 C108.4,38.1 124.3,55.6 133.1,73.6 C141.9,91.6 144.7,101.4 144.7,101.4" id="Shape"></path>
                <path d="M0.3,248.2 C0.3,248.2 39.8,262.3 79.9,238.5" id="Shape"></path>
                <path d="M79.9,238.4 C79.9,238.4 91,231.9 99.8,222.8 C108.6,213.7 115,203.6 117.2,198.8" id="Shape"></path>
            </g>
            <g id="opfinger_anim_13" transform="translate(72.000000, 91.000000)">
                <path d="M42.9,141.7 C42.9,141.7 40.5,155.5 42.1,172.7 C42.1,172.7 43.3,189.1 49,205.4" id="Shape"></path>
                <path d="M18,140.9 C18,140.9 16.1,153.4 16.7,163.4 C17.3,173.5 17.6,181.4 20.4,194.5 C23.2,207.6 29.3,225.5 34.8,235.6" id="Shape"></path>
                <path d="M0.1,57.4 C0.1,57.4 23,21.5 70.3,0.6" id="Shape"></path>
            </g>
        </g>
    </g>
</svg>