<?xml version="1.0" encoding="UTF-8"?>
<svg width="285px" height="369px" viewBox="0 0 285 369" version="1.1" xmlns="http://www.w3.org/2000/svg" xmlns:xlink="http://www.w3.org/1999/xlink">
    <!-- Generator: Sketch 46 (44423) - http://www.bohemiancoding.com/sketch -->
    <title>10</title>
    <desc>Created with Sketch.</desc>
    <defs></defs>
    <g id="Page-1" stroke="none" stroke-width="1" fill="none" fill-rule="evenodd" stroke-linecap="round" stroke-linejoin="round">
        <g id="10" transform="translate(-77.000000, -28.000000)" stroke="#000000" stroke-width="0.3">
            <g id="opfinger_anim_16" transform="translate(77.000000, 51.000000)">
                <path d="M0.7,271.3 C0.7,271.3 6.9,288.4 22.2,311.4" id="Shape"></path>
                <path d="M21.4,37.1 C21.4,37.1 39.7,22.8 71,11.7 C102.3,0.6 133.4,1 133.4,1" id="Shape"></path>
                <path d="M203.2,345.8 C203.2,345.8 214.2,344.7 226,341.2 C237.8,337.7 250.1,332.6 257.4,328.2 C264.7,323.8 274.4,317.2 280.6,312.2" id="Shape"></path>
            </g>
            <g id="opfinger_anim_17" transform="translate(138.000000, 28.000000)">
                <path d="M191.3,180.9 C191.3,180.9 186.8,168.4 182.2,161" id="Shape"></path>
                <path d="M0,12 C0,12 9.8,8.1 25.8,4.6 C41.8,1.1 50.7,0.5 53.5,0.3" id="Shape"></path>
                <path d="M204.5,150 C204.5,150 209.4,158.3 214.6,172.2 C219.8,186.1 221.1,196.8 221.5,199.5 C221.9,202.2 223.3,213 223.2,219.3" id="Shape"></path>
            </g>
        </g>
    </g>
</svg>