<?xml version="1.0" encoding="utf-8"?>
<!-- Generator: Adobe Illustrator 18.0.0, SVG Export Plug-In . SVG Version: 6.00 Build 0)  -->
<!DOCTYPE svg PUBLIC "-//W3C//DTD SVG 1.1//EN" "http://www.w3.org/Graphics/SVG/1.1/DTD/svg11.dtd">
<svg version="1.1" xmlns="http://www.w3.org/2000/svg" xmlns:xlink="http://www.w3.org/1999/xlink" x="0px" y="0px"
	 viewBox="0 0 800 800" enable-background="new 0 0 800 800" xml:space="preserve">
<g id="图层_1" display="none">
	<g>
		<g display="inline">
			<path fill="#EAEAEB" d="M407.1,556.8c15.5,0,30.1-3.5,43.4-10.3c32.5-18,57.9-39,75.4-62.4c15.9-21.2,25.5-44.6,28.6-69.3l0,0
				c0-0.1,0-0.1,0-0.2c0-1.7-1.3-3-3-3c-1.5,0-2.7,1.1-2.9,2.5l0,0c-2.9,23.7-12.1,46.1-27.4,66.4c-17,22.7-41.8,43.2-73.4,60.7
				c-12.4,6.4-26.1,9.6-40.6,9.6c-37.2,0-77.5-21.3-107.8-57.1l0,0c-0.5-0.7-1.4-1.2-2.4-1.2c-1.7,0-3,1.3-3,3
				c0,0.8,0.3,1.5,0.8,2.1l0,0C326.2,534.7,368.2,556.8,407.1,556.8z"/>
			<path fill="#EAEAEB" d="M514.1,284.9c-21.9-29.2-55.6-44-100.1-43.9c-38.5,0-70.6,11.3-72.8,12.1c-3.4,1-30.5,9.9-55,32.8
				c-29.8,27.8-42.9,64.9-37.9,107.2c4.6,35.3,18,67.9,40.2,96.5l0,0c0.5,0.8,1.4,1.3,2.5,1.3c1.7,0,3-1.3,3-3
				c0-0.7-0.3-1.4-0.7-1.9l0,0c-21.5-27.7-34.5-59.3-38.9-93.5c-12-101.3,84.7-132.4,88.8-133.6l0.1,0c0.3-0.1,32.8-11.7,70.8-11.7
				c42.5,0,74.5,14,95.3,41.6c27.9,37.1,42.3,75.6,40.2,113.8c0,0-0.5,3.3,3,3.3c1.7,0,3-1.3,3-3
				C557.7,363.1,542.9,323.2,514.1,284.9z"/>
			<path fill="#EAEAEB" d="M576.1,438.6c6.6-25.2,7-51.9,1.1-79.2c-5.3-24.5-15.4-49-30-72.8c-0.5-1-1.5-1.6-2.6-1.6
				c-1.7,0-3,1.3-3,3c0,0.6,0.2,1.2,0.5,1.6l0,0c30.3,48.9,40.4,101.3,28.3,147.4c-13.2,50.8-51.8,94.1-114.4,128.9
				c-14.6,7.5-30.7,11.3-47.8,11.3c-38.4,0-80-19.4-113.9-53.3c-35.8-35.7-59.1-82.8-65.5-132.6c-5.7-48.1,8.5-88.5,42.4-120
				c28.4-26.5,60.6-36.6,62-37l0.1,0c0.4-0.1,38.5-13.8,83.1-13.8c49.9,0,87.6,16.4,112,48.9c3.5,4.6,5.6,7.6,8.7,12.3
				c0,0,0.8,1.2,2.4,1.2c1.7,0,3-1.3,3-3c0-0.9-0.5-1.7-0.6-1.8c-3.1-4.8-5.3-7.7-8.8-12.3c-25.6-34-64.9-51.2-116.8-51.2
				c-44.6,0-83.1,13.4-85,14.1c-3.8,1.2-35.5,11.6-64.3,38.3c-15.6,14.5-27.4,31.3-35,49.7c-9.4,22.7-12.5,48-9.2,75.4
				c6.6,51.2,30.5,99.5,67.3,136.1c35.1,35,78.2,55,118.2,55c18.1,0,35.1-4,50.6-12C522.9,535.6,562.4,491,576.1,438.6z"/>
			<path fill="#EAEAEB" d="M265.5,236.3L265.5,236.3c-0.7,0.6-1.2,1.4-1.2,2.4c0,1.7,1.3,3,3,3c0.7,0,1.3-0.2,1.8-0.7l0,0
				c27.8-21.4,51.6-28.1,54.5-29l0.1,0c0.4-0.2,43.7-15.6,94.3-15.6c56.7,0,99.5,18.7,127.2,55.5c35.9,47.7,54.9,101.1,53.5,150.4
				c-0.8,28.4-8.2,55.6-22,80.9c-15.2,27.9-36.6,52.3-67.1,75.2l0,0c-0.7,0.5-1.2,1.4-1.2,2.3c0,1.7,1.3,3,3,3
				c0.7,0,1.3-0.2,1.7-0.6l0,0c31.1-23.4,53.1-48.5,68.7-77.1c14.2-26.1,21.9-54.3,22.7-83.6c1.4-50.7-18-105.4-54.7-154.2
				c-15.8-21-36.6-36.5-61.9-46.1c-20.5-7.8-44.1-11.8-70.1-11.8c-50.6,0-94.1,15.2-96.2,16C318.6,207.4,293.9,214.4,265.5,236.3z"
				/>
			<path fill="#EAEAEB" d="M461.1,335.9c-11.8-15.7-30.6-23.9-54.4-23.9c-20.6,0-37.8,6-39.2,6.5c-3.2,1-57.2,18.8-50.4,76.1
				c1.5,11.9,4.5,21.7,9.9,32.5c0,0,0.6,1.2,2,1.5c1.5,0.2,3.1-0.9,3.4-2.1c0.2-1.2-0.6-2.7-0.6-2.7c-4.5-10.7-7.3-18.8-8.8-30
				c-6.3-52.8,44.1-68.9,46.3-69.6l0.1,0c0.2-0.1,17.3-6.2,37.2-6.2c22.1,0,38.8,7.3,49.6,21.6c10.2,13.5,26.2,40.8,19.6,71.8
				c-5.1,23.9-22.6,44.3-51.9,60.6c-6.4,3.3-13.5,5-21,5c-24,0-49.8-16.8-65.7-42.9c-0.5-1.1-1.5-1.8-2.8-1.8c-1.7,0-3,1.3-3,3
				c0,0.6,0.2,1.2,0.5,1.7l0,0c17,28,44.9,46.1,71,46.1c8.5,0,16.4-1.9,23.8-5.7c31-17.2,49.5-38.9,54.9-64.6
				C488.8,379.3,471.8,350.3,461.1,335.9z"/>
			<path fill="#EAEAEB" d="M403.5,459.9c6.1,0,11.8-1.4,17.2-4.1c22-12.2,35.2-27.7,39.1-46c5.1-23.8-7-44.4-14.7-54.6
				c-8.5-11.3-21.9-17.2-39-17.2c-14.5,0-26.7,4.2-27.8,4.6c-2.5,0.8-40.9,13.6-36.1,54.5c2.2,16.8,10,32.7,22.1,44.7
				C375.9,453.2,390.2,459.9,403.5,459.9z M380.1,348.2l0.1,0c0.1,0,12-4.3,25.9-4.3c15.3,0,26.8,5,34.2,14.8
				c16.4,21.8,15.6,40.6,13.6,49.8c-3.5,16.6-15.7,30.7-36,42c-4.4,2.2-9.2,3.4-14.3,3.4c-11.8,0-24.5-6-35-16.4
				c-11.1-11.1-18.4-25.7-20.4-41.2C343.8,359.8,378.6,348.7,380.1,348.2z"/>
			<path fill="#EAEAEB" d="M402.6,435.1c3.7,0,7.2-0.8,10.5-2.5c13-7.2,20.7-16.3,23-27.2c2.2-10.5-0.8-22-8.7-32.3
				c-5.1-6.8-13.2-10.4-23.3-10.4c-8.4,0-15.5,2.4-16.4,2.7c-1.7,0.5-24.4,8.3-21.5,32.6C368.8,418.1,385.5,435.1,402.6,435.1z
				 M389.6,371.1l0.1,0c0.1,0,6.6-2.4,14.4-2.4c8.3,0,14.6,2.7,18.6,8c3.9,5.2,10.1,15.7,7.6,27.5c-1.9,9.1-8.7,16.9-20,23.2
				c-2.3,1.2-4.9,1.8-7.6,1.8c-15.5,0-28.5-16.8-30.4-31.9C369.8,377.4,388.7,371.3,389.6,371.1z"/>
			<path fill="#EAEAEB" d="M619.4,330.1c-10-34-27.8-68.5-51.4-99.9c-17.7-23.5-41-40.9-69.3-51.6c-23-8.7-49.4-13.2-78.5-13.2
				c-17.6,0-36.1,1.6-55.1,4.8l0,0c-1.5,0.2-2.7,1.4-2.7,3c0,1.7,1.3,3,3,3c0.2,0,0.4,0,0.7-0.1l0,0c18.6-3.1,36.8-4.7,54.1-4.7
				c63.7,0,111.8,21,143,62.4c23.2,30.8,40.6,64.7,50.4,98c11.1,37.6,12.7,74.3,4.9,109.2l0,0c0,0.2-0.1,0.4-0.1,0.6
				c0,1.7,1.3,3,3,3c1.5,0,2.7-1.1,3-2.5C632.4,406.2,630.7,368.6,619.4,330.1z"/>
			<path fill="#EAEAEB" d="M261.5,245.5c0-1.7-1.3-3-3-3c-0.7,0-1.4,0.3-1.9,0.7l0,0c-31.1,26.1-66.3,72.9-57.4,148
				c3.4,26.1,9.7,50.2,20.8,74.5l0,0c0.4,1.1,1.5,1.9,2.8,1.9c1.7,0,3-1.3,3-3c0-0.5-0.1-1-0.4-1.4l0,0
				c-10.9-23.7-17-47.3-20.3-72.8c-3.8-32,0.3-61.5,12.3-87.4c9.5-20.7,24-39.3,43-55.2l0,0C261.1,247.2,261.5,246.4,261.5,245.5z"
				/>
			<path fill="#EAEAEB" d="M372.4,268.8c-0.3,0-0.5,0-0.7,0.1c-12.5,2.6-20.6,5.5-21.5,5.8c-4.6,1.4-89.8,29.3-79.2,119.3
				c4.8,37.2,22.2,72.4,49,99.1c25.6,25.5,57,40.1,86.2,40.1c13.2,0,25.7-2.9,37.1-8.8c48.9-27.1,78.1-61.4,86.7-101.8
				c11.2-52.5-15.7-98.2-32.6-120.7c-18.7-24.9-47.4-37.5-85.3-37.5c-10.3,0-18.7,0.5-29.8,2.4l0,0c-1.5,0.2-2.6,1.5-2.6,3
				c0,1.7,1.4,3.1,3.1,3.1c0.2,0,0.4,0,0.7-0.1c10.7-1.8,18.7-2.3,28.7-2.3c35.8,0,62.9,11.8,80.4,35
				c16.4,21.7,42.2,65.7,31.5,115.8c-8.2,38.6-36.4,71.5-83.6,97.6c-10.4,5.4-21.9,8.1-34.2,8.1c-27.6,0-57.4-14-81.9-38.3
				c-25.8-25.7-42.6-59.6-47.2-95.5c-10.1-85.5,71.5-111.6,74.9-112.7l0.1,0c0.1,0,8.3-3,20.8-5.6l0,0c1.4-0.3,2.5-1.5,2.5-3
				C375.5,270.2,374.1,268.8,372.4,268.8z"/>
			<path fill="#EAEAEB" d="M271.5,565.5L271.5,565.5C271.5,565.5,271.5,565.5,271.5,565.5c0,0-0.1-0.1-0.1-0.1
				c-23.7-21.8-43-47.5-58.5-76.6c-16.7-31.3-27.5-64.8-31.9-99.4c-4-33.6-0.2-64.7,11.2-92.4c9.3-22.5,23.7-43,42.9-60.8
				c36.2-33.8,77.4-46.7,79.1-47.2l0.1,0c0.2-0.1,16.7-6,41.5-10.9c1.4-0.2,2.5-1.5,2.5-2.9c0-1.7-1.3-3-3-3c-0.2,0-0.4,0-0.6,0.1
				l0,0c-24.8,4.9-41.1,10.7-42.4,11.2c-4.8,1.5-45,14.6-81.4,48.6c-19.8,18.4-34.7,39.6-44.3,62.9c-11.8,28.7-15.8,60.8-11.7,95.4
				c4.6,35.4,15.5,69.5,32.6,101.5c16.1,30.1,35.3,55.7,59.9,78.3l0,0c0.5,0.4,1.2,0.7,1.9,0.7c1.7,0,3-1.3,3-3
				C272.3,566.7,272,566,271.5,565.5z"/>
			<path fill="#EAEAEB" d="M506.7,566.7c0-1.7-1.3-3-3-3c-0.6,0-1.2,0.2-1.6,0.5l0,0c-11.8,8.5-24.9,16.7-38.8,24.4
				c-16.6,8.5-34.9,12.8-54.3,12.8c-33.1,0-67.7-12.3-100.1-35.6c-32.6-23.4-59.7-55.7-78.5-93.3c-0.4-1.1-1.5-1.9-2.8-1.9
				c-1.7,0-3,1.3-3,3c0,0.5,0.1,0.9,0.3,1.3l0,0c19.2,38.6,47.1,71.7,80.5,95.8c33.4,24,69.2,36.7,103.6,36.7
				c20.4,0,39.6-4.5,57.1-13.6c14-7.8,27.2-16.1,39.2-24.7c0,0,0.1-0.1,0.1-0.1c0,0,0.1,0,0.1-0.1l0,0
				C506.2,568.5,506.7,567.6,506.7,566.7z"/>
			<path fill="#EAEAEB" d="M618.8,449.2c-1.4,0-2.6,1-2.9,2.3l0,0C598,514.6,549.3,568.6,471,612c-18.7,9.6-39.2,14.5-61.1,14.5
				c-44.1,0-91-19.7-132-55.4l0,0c-0.5-0.3-1-0.5-1.6-0.5c-1.7,0-3,1.3-3,3c0,0.7,0.3,1.4,0.7,1.9l0,0
				c42.1,36.7,90.3,56.9,135.9,56.9c22.8,0,44.3-5.1,63.9-15.2c79.8-44.2,129.5-99.5,147.8-164.1l0,0c0.1-0.3,0.2-0.6,0.2-0.9
				C621.8,450.6,620.4,449.2,618.8,449.2z"/>
			<path fill="#EAEAEB" d="M478.7,466.1c1.2,0.1,2.3-1.1,2.4-1.2c19.4-22.1,28.2-47.3,26-75c-2.4-29.5-16.6-54-28.1-69.3
				c-15.2-20.1-38.4-30.4-69-30.4c-26.3,0-48.3,7.7-49.9,8.3c-2.3,0.7-18.4,5.4-34.9,20.4l0,0c-0.5,0.5-0.9,1.3-0.9,2.1
				c0,1.7,1.4,3,3,3c0.9,0,1.7-0.4,2.3-1c16-14.2,31.6-18.5,32.3-18.8l0.1,0c0.2-0.1,22.3-7.9,47.9-7.9c28.6,0,50.2,9.4,64.2,27.9
				c11.1,14.7,24.7,38.1,26.9,66.1c2.1,26.2-6.3,50.1-24.9,71c0,0-0.7,0.9-0.6,1.8C475.6,464.7,477.1,465.9,478.7,466.1z"/>
			<path fill="#EAEAEB" d="M474.7,470.3c-0.3-1.7-1.5-2.8-3.2-2.8c-1.2,0-2.3,1.1-2.8,1.6c-10.1,9.8-21.5,17.8-36.2,25.9
				c-8.3,4.3-17.5,6.4-27.2,6.4c-22,0-45.9-11.2-65.5-30.7c-20.7-20.6-34.1-47.8-37.8-76.5c-3-25.5,3.8-47.3,20.2-64.7l0,0
				c0.4-0.5,0.6-1.1,0.6-1.8c0-1.7-1.4-3-3-3c-0.8,0-1.4,0.3-2,0.7l0,0c0,0,0,0-0.1,0.1c-0.1,0.1-0.3,0.3-0.4,0.4
				c-17.4,18.7-24.5,42-21.3,69.1c3.9,30.1,17.9,58.5,39.5,80c20.7,20.6,46.1,32.4,69.7,32.4c10.7,0,20.8-2.4,30.1-7.2
				c15.5-8.6,27.5-17,38.1-27.5C473.5,472.9,474.9,471.6,474.7,470.3z"/>
		</g>
		<g display="inline">
			<path fill="#EAEAEB" d="M586.5,211.4c-19.7-26.2-45.7-45.5-77.2-57.5c-25.6-9.7-55-14.7-87.5-14.7c-19.6,0-40.3,1.8-61.4,5.4
				l-11.5,2.1c-27.3,5.4-45.9,12-47.3,12.4c-5.3,1.6-50.1,16.3-90.7,54.1c-22,20.5-38.6,44.1-49.4,70.1
				c-13.2,31.9-17.6,67.7-13,106.3c5.1,39.4,17.3,77.5,36.3,113.1c17.9,33.6,40.9,63.3,68.4,88.5l5.7,5.1
				c46.9,40.9,100.6,63.4,151.4,63.4c25.4,0,49.3-5.7,71.2-16.9c88.9-49.3,144.3-110.8,164.7-183l3.1-12.1
				c7.6-33.8,7.3-69.3-0.6-105.5c-7.2-32.8-20.6-65.7-39.8-97.6l0,0c-0.5-1-1.5-1.6-2.6-1.6c-1.7,0-3,1.3-3,3c0,0.6,0.2,1.2,0.5,1.7
				l0,0c18.9,31.3,32,63.6,39.1,95.8c7.8,35.4,8,70,0.7,102.9l-3,11.9c-19.9,70.5-74.4,130.8-161.8,179.2
				c-20.9,10.7-43.9,16.2-68.3,16.2c-49.3,0-101.7-22-147.4-61.9l-5.6-5c-26.6-24.3-49.8-54.4-67.1-86.9
				c-18.7-35-30.7-72.3-35.7-111c-4.5-37.5-0.2-72.3,12.6-103.2c10.4-25.2,26.5-48.1,47.9-68c40.5-37.7,86.5-52.2,88.4-52.8l0.1,0
				c0.2-0.1,18.7-6.7,46.4-12.2l11.4-2.1c20.8-3.5,41.1-5.3,60.4-5.3c31.7,0,60.4,4.8,85.3,14.3c30.4,11.6,55.5,30.2,74.5,55.5
				c6.2,8.2,11.2,15.4,16.7,23.9l0,0c0.5,0.9,1.5,1.5,2.6,1.5c1.7,0,3-1.3,3-3c0-0.6-0.2-1.2-0.5-1.7l-0.9-1.4
				C597,225.6,592.8,219.8,586.5,211.4z"/>
			<path fill="#EAEAEB" d="M689.2,308.4c-13.2-45-36.8-90.7-68-132.2c-23.3-31-54.1-54-91.5-68.2c-30.4-11.6-65.3-17.4-103.8-17.4
				c-8.4,0-17,0.3-25.7,0.8c0,0,0,0,0,0c0,0-0.1,0-0.1,0c-0.1,0-0.1,0-0.2,0l0,0c-1.5,0.1-2.7,1.4-2.7,3c0,1.7,1.3,3,3,3
				c0,0,0.1,0,0.1,0l0,0c8.7-0.6,17.3-0.8,25.6-0.8c37.7,0,71.9,5.7,101.6,17c36.3,13.8,66.2,36.1,88.8,66.2c30.8,41,54,86,67,130.3
				c14.7,50,17,98.9,6.6,145.2l-3.6,14.2c-2.7,9.5-5.3,17.6-9.1,26.8c0,0.1-0.1,0.2-0.1,0.2c0,0,0,0,0,0l0,0c-0.1,0.3-0.2,0.6-0.2,1
				c0,1.7,1.3,3,3,3c1.2,0,2.2-0.7,2.7-1.7l0,0c3.9-9.5,6.6-17.9,9.4-27.8l3.6-14.3C706.4,409.3,704.2,359.5,689.2,308.4z"/>
			<path fill="#EAEAEB" d="M676.3,503.3c-1.2,0-2.2,0.7-2.7,1.7l0,0c0,0,0,0,0,0c0,0.1-0.1,0.2-0.1,0.3
				C643,574,582.5,633.8,493.8,683c-24.9,12.8-52.3,19.3-81.5,19.3c-58.8,0-121.2-26.2-175.7-73.7l0,0c-0.5-0.5-1.3-0.9-2.1-0.9
				c-1.7,0-3,1.3-3,3c0,1,0.5,1.8,1.2,2.4l0,0c55.6,48.5,119.4,75.2,179.6,75.2c30.1,0,58.5-6.7,84.3-20
				c90-49.9,151.4-110.8,182.5-180.9l0,0c0.1-0.3,0.2-0.7,0.2-1.1C679.3,504.6,677.9,503.3,676.3,503.3z"/>
			<path fill="#EAEAEB" d="M228.6,621.3L228.6,621.3c-31.6-29-57.9-63.5-78.5-102.2c-22.2-41.7-36.5-86.1-42.5-132.2
				c-5.3-44.7-0.3-86.1,15-123c12.4-30,31.6-57.3,57.1-81c48.2-44.9,103-62.2,105.3-62.9l0.1,0c0.2-0.1,22.3-8,55.3-14.6l13.6-2.5
				c12.1-2,24.1-3.6,35.9-4.7v0c1.5-0.1,2.7-1.4,2.7-3c0-1.7-1.3-3-3-3c-0.1,0-0.2,0-0.3,0l0,0c-11.9,1.1-24.1,2.7-36.4,4.7
				l-13.7,2.5c-32.6,6.5-54.7,14.3-56.1,14.8c-6.2,1.9-59.4,19.3-107.6,64.2c-26.1,24.3-45.8,52.3-58.5,83.1
				c-15.6,37.9-20.8,80.3-15.4,126.1c6,46.8,20.6,92,43.1,134.2c21.3,39.9,47.2,73.9,79.8,103.8c0,0,0.8,0.9,2.2,0.9
				c1.7,0,3-1.3,3-3C229.7,622.7,229.3,621.9,228.6,621.3z"/>
			<path fill="#EAEAEB" d="M137.8,285.4c-1.3,0-2.4,0.9-2.8,2.1l0,0c-10.1,30.9-13.1,65-8.8,101.2c5.5,42.9,18.9,84.4,39.6,123.2
				c19.5,36.6,44.6,69,74.5,96.4l6.2,5.5c51.1,44.5,109.6,69,164.9,69c27.7,0,53.7-6.2,77.5-18.4c96.9-53.7,157.3-120.8,179.5-199.4
				l3.3-13.2c9.7-43.5,7.7-89.3-6.1-136.1c-12.2-41.3-33.7-83.2-62.4-121.3c-21.4-28.5-49.7-49.6-84-62.6c-27.9-10.6-60-16-95.3-16
				c-21.4,0-43.9,2-66.9,5.9l-12.5,2.3c-29.8,5.9-50.1,13.1-51.5,13.6c-5.6,1.7-115.2,35.5-154.3,140c0,0,0,0,0,0
				c0,0.1-0.1,0.2-0.1,0.2l0,0c-0.1,0.3-0.1,0.6-0.1,0.9c0,1.7,1.3,3,3,3c1.2,0,2.3-0.7,2.8-1.8l0,0
				c38.1-102.5,146-135.3,150.6-136.7l0.1,0c0.2-0.1,20.4-7.3,50.7-13.3l12.4-2.3c22.7-3.8,44.8-5.8,65.9-5.8
				c34.6,0,65.9,5.2,93.1,15.6c33.2,12.6,60.6,33,81.3,60.6c28.2,37.5,49.5,78.8,61.4,119.4c13.5,45.9,15.5,90.6,6.1,133l-3.3,13
				c-21.8,76.9-81.2,142.8-176.5,195.6c-22.8,11.7-47.9,17.7-74.6,17.7c-53.8,0-111-24-160.9-67.5l-6.1-5.5
				c-29-26.5-54.3-59.3-73.2-94.8c-20.4-38.2-33.5-78.9-38.9-121.1c-4.2-35.4-1.3-68.6,8.5-98.6l0,0c0.1-0.3,0.2-0.6,0.2-0.9
				C140.8,286.8,139.5,285.4,137.8,285.4z"/>
		</g>
	</g>
	
	<g>
		<path display="inline" fill="none" stroke="#FF0000" stroke-width="0.5" stroke-miterlimit="10" d="M412.2,266.8
			c-33.1,0-61.1,10.1-61.1,10.1c-9.2,2.8-87.4,31.4-77.3,116.4c10,77.7,74.4,136.9,132.5,136.9c12.4,0,24.5-2.7,35.7-8.4
			c114.9-63.7,99.6-157,53.2-218.6C473.7,274.5,441,266.8,412.2,266.8"/>
		<path display="inline" fill="none" stroke="#FF0000" stroke-width="0.5" stroke-miterlimit="10" d="M414.1,243.3
			c-39,0-71.9,11.9-71.9,11.9c-10.8,3.3-103,37-91.1,137.1c11.8,91.5,87.6,161.3,156.1,161.3c14.6,0,28.8-3.2,42.1-10
			c135.4-75,117.4-185,62.7-257.6C486.6,252.4,448.1,243.3,414.1,243.3"/>
		<path display="inline" fill="none" stroke="#FF0000" stroke-width="0.5" stroke-miterlimit="10" d="M416.3,217.3
			c-45.5,0-84,13.9-84,13.9c-12.6,3.9-120.3,43.2-106.4,160.1c13.8,106.9,102.4,188.4,182.3,188.4c17,0,33.7-3.7,49.1-11.6
			c158.1-87.6,137.1-216,73.2-300.8C500.9,227.8,455.9,217.3,416.3,217.3"/>
		<path display="inline" fill="none" stroke="#FF0000" stroke-width="0.5" stroke-miterlimit="10" d="M418.2,193.2
			c-51.6,0-95.2,15.8-95.2,15.8c-14.3,4.4-136.2,48.9-120.5,181.4c15.6,121.1,116,213.4,206.6,213.4c19.3,0,38.1-4.2,55.6-13.2
			c179.1-99.3,155.3-244.7,83-340.8C514.1,205.1,463.1,193.2,418.2,193.2"/>
		<path display="inline" fill="none" stroke="#FF0000" stroke-width="0.5" stroke-miterlimit="10" d="M409.9,292.9
			c-26.6,0-49.1,8.1-49.1,8.1c-7.4,2.3-70.2,25.2-62.1,93.5c8.1,62.4,59.8,110,106.5,110c9.9,0,19.7-2.2,28.7-6.8
			c92.3-51.2,80-126.1,42.8-175.7C459.3,299.1,433,292.9,409.9,292.9"/>
		<path display="inline" fill="none" stroke="#FF0000" stroke-width="0.5" stroke-miterlimit="10" d="M406.8,314.4
			c-20.8,0-38.3,6.4-38.3,6.4c-5.7,1.8-54.8,19.7-48.5,73c6.3,48.7,46.7,85.9,83.1,85.9c7.8,0,15.3-1.7,22.4-5.3
			c72.1-40,62.5-98.5,33.4-137.2C445.4,319.2,424.8,314.4,406.8,314.4"/>
		<path display="inline" fill="none" stroke="#FF0000" stroke-width="0.5" stroke-miterlimit="10" d="M405.9,341
			c-14.6,0-26.9,4.5-26.9,4.5c-4,1.2-38.6,13.9-34.1,51.4c4.4,34.3,32.8,60.4,58.5,60.4c5.5,0,10.8-1.2,15.8-3.7
			c50.7-28.1,44-69.3,23.5-96.5C433,344.4,418.6,341,405.9,341"/>
		<path display="inline" fill="none" stroke="#FF0000" stroke-width="0.5" stroke-miterlimit="10" d="M404.2,364.9
			c-8.4,0-15.6,2.6-15.6,2.6c-2.3,0.7-22.3,8-19.7,29.6c2.6,19.8,19,34.9,33.8,34.9c3.2,0,6.2-0.7,9.1-2.2
			c29.3-16.2,25.4-40,13.6-55.7C419.9,366.9,411.6,364.9,404.2,364.9"/>
		<path display="inline" fill="none" stroke="#FF0000" stroke-width="0.5" stroke-miterlimit="10" d="M420.3,167.9
			c-58,0-106.9,17.8-106.9,17.8c-16,4.9-153,55-135.4,203.8c17.6,136.1,130.3,239.8,232,239.8c21.7,0,42.8-4.7,62.5-14.8
			C673.7,502.8,647,339.5,565.7,231.5C527.9,181.3,470.7,167.9,420.3,167.9"/>
		<path display="inline" fill="none" stroke="#FF0000" stroke-width="0.5" stroke-miterlimit="10" d="M421.9,141.9
			c-64.6,0-119.2,19.8-119.2,19.8c-17.9,5.5-170.7,61.3-151,227.2c19.6,151.7,145.3,267.4,258.8,267.4c24.2,0,47.8-5.2,69.7-16.5
			c224.4-124.4,194.5-306.6,103.9-426.9C542,156.8,478.1,141.9,421.9,141.9"/>
		<path display="inline" fill="none" stroke="#FF0000" stroke-width="0.5" stroke-miterlimit="10" d="M423.8,118.7
			c-70.5,0-130,21.6-130,21.6c-19.5,6-186,66.8-164.6,247.7c21.4,165.4,158.4,291.5,282.1,291.5c26.3,0,52.1-5.7,76-18
			c244.6-135.6,212.1-334.2,113.3-465.4C554.7,135,485.1,118.7,423.8,118.7"/>
		<path display="inline" fill="none" stroke="#FF0000" stroke-width="0.5" stroke-miterlimit="10" d="M425.8,93.5
			C349,93.5,284.2,117,284.2,117c-21.2,6.6-202.8,72.8-179.4,270c23.3,180.3,172.6,317.7,307.5,317.7c28.7,0,56.8-6.2,82.8-19.6
			c266.6-147.8,231.1-364.2,123.5-507.2C568.5,111.3,492.7,93.5,425.8,93.5"/>
	</g>
</g>
<g id="_x30_1" display="none">
	<path display="inline" fill="none" stroke="#3D3D3D" stroke-miterlimit="10" d="M405.7,364.9c0,0,3.7-0.3,10.2,2s9.1,6.8,10,8
		s3.6,4.2,6.4,11.9s3.1,17.2-1.8,25.9s-13.6,14.5-18.5,17.1s-18.9,5.8-32.1-9c0,0-13.5-15-10.8-32.6c0,0,0.4-2.5,1-3.9"/>
	<path display="inline" fill="none" stroke="#3D3D3D" stroke-miterlimit="10" d="M289.8,487c0,0-25-35-32.2-64.2
		s-15.3-67.1,8.3-107.7c0,0,13.9-22.8,30.9-34.8"/>
	<path display="inline" fill="none" stroke="#3D3D3D" stroke-miterlimit="10" d="M328.7,424.3c0,0-30.7-59.3,20.3-94c0,0,5.7-4,13-7
		"/>
</g>
<g id="_x30_2" display="none">
	<path display="inline" fill="none" stroke="#3D3D3D" stroke-miterlimit="10" d="M370.1,384.4c0,0,5.2-19.4,35.5-19.4"/>
	<path display="inline" fill="none" stroke="#3D3D3D" stroke-miterlimit="10" d="M409,341c0,0,18-0.5,30.5,12.5
		c12.5,13,19,33.9,18.4,43.5c-0.6,9.6,0,25.5-20.1,43.4c-20.1,17.9-32.6,20.8-51.7,13.2c0,0-11.6-4.7-18.7-12.4"/>
	<path display="inline" fill="none" stroke="#3D3D3D" stroke-miterlimit="10" d="M545.6,289.5c0,0,36.3,56.2,32.6,112.2
		c0,0,0.2,51.8-33.7,94.2"/>
</g>
<g id="_x30_3" display="none">
	<path display="inline" fill="none" stroke="#3D3D3D" stroke-miterlimit="10" d="M328.9,424.6c0,0-13.5-29.4-8.2-52.8
		s18.6-35.6,33.1-44.5c0,0,5.4-3.2,8.7-4.3c0,0,30.9-13.4,62.2-7.1c0,0,26.3,3,42,33.3c15.7,30.3,15.3,46.5,11.3,66.8
		c0,0-1.7,6.9-4.3,10.9"/>
	<path display="inline" fill="none" stroke="#3D3D3D" stroke-miterlimit="10" d="M296.8,280.2c0,0,43.2-36.9,115.9-36.9"/>
	<path display="inline" fill="none" stroke="#3D3D3D" stroke-miterlimit="10" d="M551.6,416.1c0,0-1.9,45.4-51.4,91.8
		c0,0-45.7,40.3-72.9,43.7c-27.2,3.4-41.4,2.1-57.1-4.4"/>
</g>
<g id="_x30_4_1_" display="none">
	<path display="inline" fill="none" stroke="#3D3D3D" stroke-miterlimit="10" d="M544.6,495.9c0,0-24.8,37.7-86.7,71.9
		c0,0-34.1,22.5-87.8,6.1c0,0-54.6-11.9-102.6-76.9"/>
	<path display="inline" fill="none" stroke="#3D3D3D" stroke-miterlimit="10" d="M383.7,269c0,0,30.7-6.3,60.3,1.3
		c29.7,7.7,48.3,21,68,59c19.7,38,23.7,75.3,8.3,115.3c-15.3,40-70.5,74.5-86.1,80.6c-15.6,6.1-43.9,10.1-82.3-10.9"/>
	<path display="inline" fill="none" stroke="#3D3D3D" stroke-miterlimit="10" d="M265.3,239.7c0,0,32.3-24.7,68.7-34.3
		c36.3-9.7,63-12.6,81-12.1"/>
</g>
<g id="_x30_5_1_" display="none">
	<path display="inline" fill="none" stroke="#3D3D3D" stroke-miterlimit="10" d="M473.7,427c0,0-5.4,14.8-24.7,31.5
		s-37.7,26-61.1,19.1c-23.4-6.9-43.1-23.9-53.6-43.1"/>
	<path display="inline" fill="none" stroke="#3D3D3D" stroke-miterlimit="10" d="M501.7,567.3c0,0-43.3,37-90.7,36.5
		c-47.3-0.5-85-19.5-123-51.5s-60.3-79-60.3-79"/>
	<path display="inline" fill="none" stroke="#3D3D3D" stroke-miterlimit="10" d="M222.7,463c0,0-51-105.9,5-183.8
		c0,0,15.1-21.6,29.7-32.9"/>
</g>
<g id="_x30_6_1_" display="none">
	<path display="inline" fill="none" stroke="#3D3D3D" stroke-miterlimit="10" d="M326.7,320.5c0,0,27.7-27,81.7-27.5"/>
</g>
<g id="_x30_7_1_" display="none">
	<path display="inline" fill="none" stroke="#3D3D3D" stroke-miterlimit="10" d="M415,193.2c0,0,75-4.5,120.7,42.8
		c45.7,47.3,70.7,123,65.3,176.7s-31.3,103.7-90,147.7"/>
	<path display="inline" fill="none" stroke="#3D3D3D" stroke-miterlimit="10" d="M471,470.8c0,0-26.8,27.2-53.5,32.8
		c0,0-43.2,11-85.8-36.5c0,0-23.2-25.2-29.8-55.2"/>
</g>
<g id="_x30_8_1_" display="none">
	<path display="inline" fill="none" stroke="#3D3D3D" stroke-miterlimit="10" d="M351.2,366.5c0,0,13.4-25.8,57.8-25.5"/>
	<path display="inline" fill="none" stroke="#3D3D3D" stroke-miterlimit="10" d="M352,514.3c0,0-60.5-30.7-77.3-115"/>
</g>
<g id="_x30_9_1_" display="none">
	<path display="inline" fill="none" stroke="#3D3D3D" stroke-miterlimit="10" d="M302,411.8c0,0-16.2-51.1,17.4-84.2"/>
	<path display="inline" fill="none" stroke="#3D3D3D" stroke-miterlimit="10" d="M267.5,565.2c0,0-53.3-45.3-77.9-124"/>
	<path display="inline" fill="none" stroke="#3D3D3D" stroke-miterlimit="10" d="M368.7,172.2c0,0,28.8-4.7,49.3-4.2"/>
</g>
<g id="_x31_0_1_" display="none">
	<path display="inline" fill="none" stroke="#3D3D3D" stroke-miterlimit="10" d="M412.7,243.3c0,0,68.8-5.8,104.3,49.7
		s35.4,80.7,35.9,110.9"/>
	<path display="inline" fill="none" stroke="#3D3D3D" stroke-miterlimit="10" d="M370.1,547.2c0,0-39.9-12.1-72-50.4"/>
	<path display="inline" fill="none" stroke="#3D3D3D" stroke-miterlimit="10" d="M267.5,497c0,0-76-103-26-194
		c0,0,38.7-76.2,151.9-84.6"/>
</g>
<g id="_x31_1_1_" display="none">
	<path display="inline" fill="none" stroke="#3D3D3D" stroke-miterlimit="10" d="M189.6,441.2c0,0-47.4-121.6,39.8-204.1
		c0,0,43-46.7,125.3-62.4"/>
	<path display="inline" fill="none" stroke="#3D3D3D" stroke-miterlimit="10" d="M408.3,293c0,0,48.3-4.1,72,34.3
		c0,0,54.4,71,0,133.9"/>
	<path display="inline" fill="none" stroke="#3D3D3D" stroke-miterlimit="10" d="M618.5,453.5c0,0-9.7,41.1-47.5,84.5
		c0,0-29.8,38.1-86,69.1"/>
</g>
<g id="_x31_2_1_" display="none">
	<path display="inline" fill="none" stroke="#3D3D3D" stroke-miterlimit="10" d="M393.4,218.4c0,0,69.5-8.7,113.1,24.9
		c0,0,19.6,13.9,33.3,36.9"/>
	<path display="inline" fill="none" stroke="#3D3D3D" stroke-miterlimit="10" d="M485,607c-58.7,32.3-97.3,24.3-136,10.3
		S277,574,277,574"/>
</g>
<g id="_x31_3_1_" display="none">
	<path display="inline" fill="none" stroke="#3D3D3D" stroke-miterlimit="10" d="M418,168c0,0,71.5-3,117.5,33.5s71.5,95.8,83,135.6
		C630,377,627.1,419,622,439"/>
	<path display="inline" fill="none" stroke="#3D3D3D" stroke-miterlimit="10" d="M274.7,399.3c0,0-17.2-65.8,50-109.8
		c0,0,19.2-12.9,42.7-17.2"/>
</g>
<g id="_x31_4_1_" display="none">
	<path display="inline" fill="none" stroke="#3D3D3D" stroke-miterlimit="10" d="M591.5,224c0,0,62.5,82.5,60,171
		c0,0,3.6,42.5-17.2,89.8S588.5,558,569,576"/>
	<path display="inline" fill="none" stroke="#3D3D3D" stroke-miterlimit="10" d="M141,278.5c0,0,31.2-97.5,159-140.5"/>
	<path display="inline" fill="none" stroke="#3D3D3D" stroke-miterlimit="10" d="M373,96.8c0,0,32.5-4,51.5-3.3"/>
</g>
<g id="_x31_5_1_" display="none">
	<path display="inline" fill="none" stroke="#3D3D3D" stroke-miterlimit="10" d="M569,576c0,0-71.3,67.8-128.2,77.4
		C384,663,334.5,645.5,286,613.5c0,0-38.2-27.8-57.9-53.2"/>
	<path display="inline" fill="none" stroke="#3D3D3D" stroke-miterlimit="10" d="M300,138c0,0,116.7-38.3,208.4-6.9
		c0,0,71.9,15.7,121,108.6"/>
</g>
<g id="_x31_6_1_" display="none">
	<path display="inline" fill="none" stroke="#3D3D3D" stroke-miterlimit="10" d="M629.4,239.7c0,0,65.3,102.7,39.3,210.7
		c0,0-12,72.7-77.7,135.3c0,0-47,47.3-106,77"/>
	<path display="inline" fill="none" stroke="#3D3D3D" stroke-miterlimit="10" d="M218.3,615.7c0,0-91-81-113.3-225"/>
	<path display="inline" fill="none" stroke="#3D3D3D" stroke-miterlimit="10" d="M228.1,560.3c0,0-3.1-3-12.5-15.3"/>
</g>
<g id="_x31_7_1_" display="none">
	<path display="inline" fill="none" stroke="#3D3D3D" stroke-miterlimit="10" d="M485,662.6c0,0-73.4,43.2-176.1-10"/>
	<path display="inline" fill="none" stroke="#3D3D3D" stroke-miterlimit="10" d="M215.7,545c0,0-82.6-103.5-62.6-221.5
		s138.9-158,138.9-158"/>
</g>
<g id="_x31_8_1_" display="none">
	<path display="inline" fill="none" stroke="#3D3D3D" stroke-miterlimit="10" d="M292,165.5c0,0,84.9-33.9,172.7-20.5
		c0,0,73.3,6,117.3,65.5"/>
	<path display="inline" fill="none" stroke="#3D3D3D" stroke-miterlimit="10" d="M105,390.7c0,0-26.4-136.2,90.3-225.2
		c0,0,57.2-51.1,156-65.3"/>
</g>
<g id="_x31_9_1_" display="none">
	<path display="inline" fill="none" stroke="#3D3D3D" stroke-miterlimit="10" d="M686,479.9c0,0-18.7,72.1-95,138.8
		c0,0-42.3,36-80,57.3s-56,25.7-89,28.7"/>
	<path display="inline" fill="none" stroke="#3D3D3D" stroke-miterlimit="10" d="M308.9,652.7c0,0-120.1-57.7-165.5-201.5
		c0,0-31-85.4-7-158.3"/>
</g>
<g id="_x32_0">
	<path fill="none" stroke="#3D3D3D" stroke-miterlimit="10" d="M424.5,93.5c0,0,129.7-7.4,195.1,85.7s76.3,155.7,79.5,204.4
		s-9.5,82.7-9.5,82.7"/>
	<path fill="none" stroke="#3D3D3D" stroke-miterlimit="10" d="M422,704.7c0,0-92.6,12-192.6-79.2"/>
</g>
</svg>
