<?xml version="1.0" encoding="UTF-8"?>
<svg width="182px" height="238px" viewBox="0 0 182 238" version="1.1" xmlns="http://www.w3.org/2000/svg" xmlns:xlink="http://www.w3.org/1999/xlink">
    <!-- Generator: Sketch 46 (44423) - http://www.bohemiancoding.com/sketch -->
    <title>02</title>
    <desc>Created with Sketch.</desc>
    <defs></defs>
    <g id="Page-1" stroke="none" stroke-width="1" fill="none" fill-rule="evenodd" stroke-linecap="round" stroke-linejoin="round">
        <g id="02" transform="translate(-125.000000, -102.000000)" stroke="#000000" stroke-width="0.3">
            <g id="opfinger_anim_03" transform="translate(144.000000, 102.000000)">
                <path d="M142.6,142.7 C142.6,142.7 141.9,120.5 126.3,101.5 C110.7,82.5 93.2,77.7 84,75.5" id="Shape"></path>
                <path d="M49.9,0.8 C49.9,0.8 27,3.3 7.9,12.5" id="Shape"></path>
                <path d="M0.4,186.9 C0.4,186.9 8.8,214.6 32.5,236.9" id="Shape"></path>
            </g>
            <g id="opfinger_anim_04" transform="translate(126.000000, 130.000000)">
                <path d="M136,119.3 C136,119.3 135.3,78 93.8,71.3" id="Shape"></path>
                <path d="M29.4,39.2 C29.4,39.2 11.5,51 0.1,71.6" id="Shape"></path>
                <path d="M119.5,0.8 C119.5,0.8 134.8,4.5 151.2,14.6 C167.6,24.6 180.5,39.6 180.5,39.6" id="Shape"></path>
            </g>
        </g>
    </g>
</svg>