<?xml version="1.0" encoding="UTF-8"?>
<svg width="262px" height="395px" viewBox="0 0 262 395" version="1.1" xmlns="http://www.w3.org/2000/svg" xmlns:xlink="http://www.w3.org/1999/xlink">
    <!-- Generator: Sketch 46 (44423) - http://www.bohemiancoding.com/sketch -->
    <title>12</title>
    <desc>Created with Sketch.</desc>
    <defs></defs>
    <g id="Page-1" stroke="none" stroke-width="1" fill="none" fill-rule="evenodd" stroke-linecap="round" stroke-linejoin="round">
        <g id="12" transform="translate(-99.000000, -27.000000)" stroke="#000000" stroke-width="0.3">
            <path d="M99.2,362.4 C99.2,362.4 105,371 112.4,379.3 C119.8,387.6 129.3,396.7 132.8,399.6 C136.3,402.5 146.3,410.6 153.1,414.9 C159.9,419.2 163.7,421.4 163.7,421.4" id="Shape"></path>
            <path d="M304.1,74.4 C304.1,74.4 312.7,78.7 320.1,83.7 C327.5,88.7 337.7,95.7 346,103.7 C354.3,111.7 360.6,118.5 360.6,118.5" id="Shape"></path>
            <path d="M191.6,28.2 C191.6,28.2 215.5,25.2 245.3,29.6 C275.1,34 295.3,43 295.3,43" id="Shape"></path>
        </g>
    </g>
</svg>